<mxfile host="app.diagrams.net" modified="2023-01-26T04:11:05.446Z" agent="5.0 (Windows NT 10.0; Win64; x64) AppleWebKit/537.36 (KHTML, like Gecko) Chrome/109.0.0.0 Safari/537.36 Edg/109.0.1518.61" etag="xFNlgQB_G5X0u7iXj5Hh" version="20.8.11" type="github">
  <diagram name="페이지-1" id="WdTHRnHAevfqnV-33KoL">
    <mxGraphModel dx="367" dy="626" grid="1" gridSize="10" guides="1" tooltips="1" connect="1" arrows="1" fold="1" page="1" pageScale="1" pageWidth="827" pageHeight="1169" math="0" shadow="0">
      <root>
        <mxCell id="0" />
        <mxCell id="1" parent="0" />
        <mxCell id="2fw-GsOvtdJTi540aUlB-1" value="이용자" style="shape=umlActor;verticalLabelPosition=bottom;verticalAlign=top;html=1;outlineConnect=0;" vertex="1" parent="1">
          <mxGeometry x="40" y="450" width="30" height="60" as="geometry" />
        </mxCell>
        <mxCell id="2fw-GsOvtdJTi540aUlB-2" value="게시판 서비스" style="shape=umlFrame;whiteSpace=wrap;html=1;width=100;height=20;" vertex="1" parent="1">
          <mxGeometry x="140" y="210" width="660" height="550" as="geometry" />
        </mxCell>
        <mxCell id="2fw-GsOvtdJTi540aUlB-3" value="회원 가입" style="rounded=1;whiteSpace=wrap;html=1;arcSize=40;fontColor=#000000;fillColor=#ffffc0;strokeColor=#ff0000;" vertex="1" parent="1">
          <mxGeometry x="160" y="340" width="120" height="50" as="geometry" />
        </mxCell>
        <mxCell id="2fw-GsOvtdJTi540aUlB-5" value="게시글 보기" style="rounded=1;whiteSpace=wrap;html=1;arcSize=40;fontColor=#000000;fillColor=#ffffc0;strokeColor=#ff0000;" vertex="1" parent="1">
          <mxGeometry x="160" y="640" width="120" height="40" as="geometry" />
        </mxCell>
        <mxCell id="2fw-GsOvtdJTi540aUlB-6" value="게시판 보기" style="rounded=1;whiteSpace=wrap;html=1;arcSize=40;fontColor=#000000;fillColor=#ffffc0;strokeColor=#ff0000;" vertex="1" parent="1">
          <mxGeometry x="160" y="490" width="120" height="40" as="geometry" />
        </mxCell>
        <mxCell id="2fw-GsOvtdJTi540aUlB-7" value="회원 로그인" style="rounded=1;whiteSpace=wrap;html=1;arcSize=40;fontColor=#000000;fillColor=#ffffc0;strokeColor=#ff0000;" vertex="1" parent="1">
          <mxGeometry x="310" y="240" width="120" height="40" as="geometry" />
        </mxCell>
        <mxCell id="2fw-GsOvtdJTi540aUlB-8" value="인증" style="rounded=1;whiteSpace=wrap;html=1;arcSize=40;fontColor=#000000;fillColor=#ffffc0;strokeColor=#ff0000;" vertex="1" parent="1">
          <mxGeometry x="530" y="240" width="120" height="40" as="geometry" />
        </mxCell>
        <mxCell id="2fw-GsOvtdJTi540aUlB-9" value="로그인 실패" style="rounded=1;whiteSpace=wrap;html=1;arcSize=40;fontColor=#000000;fillColor=#ffffc0;strokeColor=#ff0000;" vertex="1" parent="1">
          <mxGeometry x="530" y="320" width="120" height="40" as="geometry" />
        </mxCell>
        <mxCell id="2fw-GsOvtdJTi540aUlB-10" value="게시판 정렬&amp;nbsp;" style="rounded=1;whiteSpace=wrap;html=1;arcSize=40;fontColor=#000000;fillColor=#ffffc0;strokeColor=#ff0000;" vertex="1" parent="1">
          <mxGeometry x="330" y="460" width="120" height="40" as="geometry" />
        </mxCell>
        <mxCell id="2fw-GsOvtdJTi540aUlB-11" value="게시판 검색" style="rounded=1;whiteSpace=wrap;html=1;arcSize=40;fontColor=#000000;fillColor=#ffffc0;strokeColor=#ff0000;" vertex="1" parent="1">
          <mxGeometry x="330" y="520" width="120" height="40" as="geometry" />
        </mxCell>
        <mxCell id="2fw-GsOvtdJTi540aUlB-13" value="게시글 쓰기, 수정, 삭제" style="rounded=1;whiteSpace=wrap;html=1;arcSize=40;fontColor=#000000;fillColor=#ffffc0;strokeColor=#ff0000;" vertex="1" parent="1">
          <mxGeometry x="330" y="630" width="120" height="40" as="geometry" />
        </mxCell>
        <mxCell id="2fw-GsOvtdJTi540aUlB-14" value="댓글 보기, 쓰기, 수정, 삭제" style="rounded=1;whiteSpace=wrap;html=1;arcSize=40;fontColor=#000000;fillColor=#ffffc0;strokeColor=#ff0000;" vertex="1" parent="1">
          <mxGeometry x="330" y="700" width="120" height="40" as="geometry" />
        </mxCell>
      </root>
    </mxGraphModel>
  </diagram>
</mxfile>
